<svg xmlns="http://www.w3.org/2000/svg" xmlns:xlink="http://www.w3.org/1999/xlink" width="500" zoomAndPan="magnify" viewBox="0 0 375 374.999991" height="500" preserveAspectRatio="xMidYMid meet" version="1.0"><defs><clipPath id="287e68e4b7"><path d="M 39.308594 39.308594 L 335.558594 39.308594 L 335.558594 335.558594 L 39.308594 335.558594 Z M 39.308594 39.308594 " clip-rule="nonzero"/></clipPath></defs><rect x="-37.5" width="450" fill="#ffffff" y="-37.499999" height="449.999989" fill-opacity="1"/><rect x="-37.5" width="450" fill="#ffffff" y="-37.499999" height="449.999989" fill-opacity="1"/><rect x="-37.5" width="450" fill="#ffffff" y="-37.499999" height="449.999989" fill-opacity="1"/><path fill="#c8c8c8" d="M 297.332031 170.441406 L 297.332031 330.78125 L 77.535156 330.78125 L 77.535156 170.449219 L 187.433594 72.757812 Z M 297.332031 170.441406 " fill-opacity="1" fill-rule="nonzero"/><path fill="#dcdcdc" d="M 77.535156 184.78125 L 77.535156 330.78125 L 297.332031 330.78125 L 297.332031 184.777344 L 187.433594 87.089844 Z M 77.535156 184.78125 " fill-opacity="1" fill-rule="nonzero"/><path fill="#dd4946" d="M 187.4375 44.085938 L 330.78125 173.097656 L 316.445312 187.433594 L 187.433594 72.757812 L 58.421875 187.433594 L 44.085938 173.097656 Z M 187.4375 44.085938 " fill-opacity="1" fill-rule="nonzero"/><path fill="#c53330" d="M 51.632812 180.644531 L 58.421875 187.433594 L 187.433594 72.757812 L 316.445312 187.433594 L 323.234375 180.644531 L 187.4375 58.421875 C 187.433594 58.421875 81.082031 154.144531 51.632812 180.644531 Z M 51.632812 180.644531 " fill-opacity="1" fill-rule="nonzero"/><path fill="#672a0d" d="M 249.550781 99.992188 L 249.550781 63.199219 L 297.332031 63.199219 L 297.332031 142.996094 " fill-opacity="1" fill-rule="nonzero"/><path fill="#893b1b" d="M 249.550781 90.4375 L 297.332031 133.441406 L 297.332031 63.199219 L 249.550781 63.199219 Z M 249.550781 90.4375 " fill-opacity="1" fill-rule="nonzero"/><path fill="#5a5b5d" d="M 149.207031 220.882812 L 173.097656 244.773438 L 178.699219 239.171875 C 184.289062 233.582031 191.878906 230.4375 199.789062 230.4375 C 204.121094 230.4375 208.265625 232.160156 211.324219 235.214844 C 214.382812 238.273438 216.105469 242.425781 216.105469 246.75 L 216.105469 254.328125 L 235.214844 273.441406 L 268.664062 239.996094 L 249.550781 220.882812 L 241.972656 220.882812 C 237.644531 220.882812 233.496094 219.160156 230.4375 216.105469 C 227.378906 213.046875 225.660156 208.894531 225.660156 204.570312 L 225.660156 192.210938 L 210.011719 176.5625 C 201.429688 167.980469 191.109375 161.335938 179.746094 157.074219 L 179.722656 157.0625 C 165.898438 151.882812 151.261719 149.222656 136.503906 149.207031 C 132.296875 149.203125 128.152344 150.183594 124.390625 152.0625 C 122.03125 153.242188 120.539062 155.652344 120.539062 158.292969 C 120.539062 161.402344 122.597656 164.136719 125.589844 164.984375 L 141.574219 169.554688 C 149.714844 171.882812 157.128906 176.242188 163.117188 182.230469 L 163.324219 182.4375 C 166.519531 185.632812 168.316406 189.964844 168.316406 194.480469 L 168.316406 194.703125 C 168.316406 199.226562 166.519531 203.566406 163.324219 206.761719 Z M 149.207031 220.882812 " fill-opacity="1" fill-rule="nonzero"/><path fill="#777777" d="M 232.417969 230.4375 C 228.09375 230.4375 223.941406 228.71875 220.882812 225.660156 C 217.824219 222.601562 216.105469 218.449219 216.105469 214.125 L 216.105469 201.769531 L 200.453125 186.121094 C 191.875 177.539062 181.550781 170.890625 170.191406 166.628906 L 170.164062 166.621094 C 156.34375 161.441406 141.707031 158.777344 126.945312 158.765625 C 124.847656 158.765625 122.765625 159.003906 120.734375 159.480469 C 121.195312 162.066406 123 164.246094 125.589844 164.984375 L 141.574219 169.554688 C 149.714844 171.882812 157.128906 176.242188 163.117188 182.230469 L 163.324219 182.4375 C 166.519531 185.632812 168.316406 189.964844 168.316406 194.480469 L 168.316406 194.703125 C 168.316406 199.226562 166.519531 203.566406 163.324219 206.761719 L 153.765625 216.320312 L 149.207031 220.882812 L 173.097656 244.773438 L 178.699219 239.171875 C 184.289062 233.582031 191.878906 230.4375 199.789062 230.4375 C 204.113281 230.4375 208.265625 232.160156 211.324219 235.214844 C 214.382812 238.273438 216.105469 242.425781 216.105469 246.75 L 216.105469 254.328125 L 235.214844 273.441406 L 259.109375 249.550781 L 239.996094 230.4375 Z M 232.417969 230.4375 " fill-opacity="1" fill-rule="nonzero"/><path fill="#5a5b5d" d="M 96.644531 330.78125 L 144.429688 273.441406 L 120.539062 249.550781 L 77.535156 283 L 77.535156 330.78125 Z M 96.644531 330.78125 " fill-opacity="1" fill-rule="nonzero"/><path fill="#777777" d="M 77.535156 330.78125 L 96.644531 330.78125 L 144.429688 273.441406 L 130.09375 259.109375 L 77.535156 302.910156 Z M 77.535156 330.78125 " fill-opacity="1" fill-rule="nonzero"/><path fill="#e7b532" d="M 125.316406 254.332031 L 153.984375 225.664062 L 168.320312 240 L 139.652344 268.667969 Z M 125.316406 254.332031 " fill-opacity="1" fill-rule="nonzero"/><path fill="#959595" d="M 216.105469 254.332031 L 249.550781 220.886719 L 268.664062 240 L 235.21875 273.445312 Z M 216.105469 254.332031 " fill-opacity="1" fill-rule="nonzero"/><path fill="#f9cb66" d="M 125.316406 254.332031 L 149.207031 230.441406 L 163.542969 244.777344 L 139.652344 268.667969 Z M 125.316406 254.332031 " fill-opacity="1" fill-rule="nonzero"/><g clip-path="url(#287e68e4b7)"><path fill="#000000" d="M 302.113281 140.871094 L 302.113281 63.199219 C 302.113281 60.558594 299.976562 58.421875 297.332031 58.421875 L 249.550781 58.421875 C 246.910156 58.421875 244.773438 60.558594 244.773438 63.199219 L 244.773438 89.261719 L 190.636719 40.539062 C 189.757812 39.75 188.621094 39.308594 187.4375 39.308594 C 185.597656 39.308594 185.597656 39.308594 112.5625 105.042969 L 40.890625 169.550781 C 39.917969 170.421875 39.347656 171.660156 39.308594 172.976562 C 39.277344 174.285156 39.78125 175.550781 40.710938 176.476562 L 55.042969 190.8125 C 56.832031 192.597656 59.71875 192.691406 61.59375 191.003906 L 72.757812 181.082031 L 72.757812 330.78125 C 72.757812 333.421875 74.894531 335.558594 77.535156 335.558594 L 297.332031 335.558594 C 299.976562 335.558594 302.113281 333.421875 302.113281 330.78125 L 302.113281 181.082031 L 313.273438 191.003906 C 314.175781 191.8125 315.3125 192.210938 316.445312 192.210938 C 317.675781 192.210938 318.898438 191.738281 319.824219 190.8125 L 334.160156 176.476562 C 335.085938 175.550781 335.59375 174.285156 335.558594 172.976562 C 335.519531 171.667969 334.953125 170.429688 333.976562 169.550781 Z M 254.328125 67.980469 L 292.554688 67.980469 L 292.554688 132.269531 L 254.328125 97.867188 Z M 82.3125 285.335938 L 120.140625 255.910156 L 137.964844 273.734375 L 94.402344 326.003906 L 82.3125 326.003906 Z M 166.496094 178.851562 C 159.953125 172.3125 151.789062 167.503906 142.886719 164.957031 L 126.902344 160.390625 C 125.972656 160.121094 125.316406 159.261719 125.316406 158.285156 C 125.316406 157.457031 125.78125 156.710938 126.527344 156.335938 C 129.597656 154.800781 133.039062 153.988281 136.472656 153.988281 C 136.484375 153.988281 136.488281 153.988281 136.5 153.988281 C 150.738281 154 164.714844 156.542969 178.070312 161.550781 C 188.863281 165.597656 198.476562 171.785156 206.636719 179.945312 L 220.882812 194.191406 L 220.882812 204.570312 C 220.882812 210.203125 223.074219 215.496094 227.058594 219.480469 C 230.179688 222.601562 234.113281 224.574219 238.371094 225.304688 L 220.53125 243.144531 C 219.800781 238.886719 217.824219 234.953125 214.707031 231.832031 C 210.71875 227.851562 205.425781 225.660156 199.789062 225.660156 C 190.542969 225.660156 181.859375 229.257812 175.320312 235.792969 L 173.097656 238.015625 L 155.964844 220.882812 L 166.703125 210.144531 C 170.828125 206.015625 173.097656 200.53125 173.09375 194.488281 C 173.09375 188.664062 170.824219 183.179688 166.496094 178.851562 Z M 249.550781 227.636719 L 261.90625 239.996094 L 235.214844 266.6875 L 222.859375 254.328125 Z M 161.566406 239.996094 L 139.652344 261.90625 L 132.074219 254.328125 L 153.988281 232.417969 Z M 292.554688 326.003906 L 106.847656 326.003906 L 148.105469 276.503906 C 149.6875 274.609375 149.5625 271.8125 147.808594 270.0625 L 146.410156 268.664062 L 168.320312 246.75 L 169.722656 248.152344 C 171.589844 250.019531 174.609375 250.019531 176.476562 248.152344 L 182.078125 242.550781 C 186.808594 237.820312 193.101562 235.214844 199.789062 235.214844 C 202.871094 235.214844 205.769531 236.414062 207.945312 238.59375 C 210.125 240.773438 211.324219 243.675781 211.324219 246.75 L 211.324219 254.328125 C 211.324219 255.601562 211.828125 256.8125 212.726562 257.707031 L 231.839844 276.820312 C 232.769531 277.753906 233.992188 278.21875 235.214844 278.21875 C 236.441406 278.21875 237.664062 277.753906 238.59375 276.820312 L 272.042969 243.371094 C 273.910156 241.503906 273.910156 238.484375 272.042969 236.617188 L 252.929688 217.503906 C 252.035156 216.605469 250.820312 216.105469 249.550781 216.105469 L 241.972656 216.105469 C 238.890625 216.105469 235.996094 214.902344 233.816406 212.726562 C 231.636719 210.546875 230.4375 207.644531 230.4375 204.570312 L 230.4375 192.210938 C 230.4375 190.941406 229.9375 189.726562 229.039062 188.835938 L 213.394531 173.191406 C 204.261719 164.058594 193.507812 157.136719 181.402344 152.589844 C 166.996094 147.191406 151.898438 144.445312 136.507812 144.429688 C 136.5 144.429688 136.484375 144.429688 136.472656 144.429688 C 131.566406 144.429688 126.644531 145.589844 122.257812 147.785156 C 118.25 149.78125 115.761719 153.808594 115.761719 158.285156 C 115.761719 163.5 119.257812 168.140625 124.277344 169.578125 L 140.257812 174.144531 C 147.601562 176.242188 154.339844 180.210938 159.945312 185.808594 C 162.261719 188.128906 163.539062 191.210938 163.539062 194.703125 C 163.542969 197.980469 162.261719 201.0625 159.945312 203.378906 L 145.832031 217.492188 C 143.960938 219.363281 143.960938 222.382812 145.832031 224.25 L 147.230469 225.660156 L 125.316406 247.574219 L 123.917969 246.171875 C 122.210938 244.46875 119.503906 244.296875 117.605469 245.78125 L 82.3125 273.226562 L 82.3125 172.589844 L 187.433594 79.148438 L 292.554688 172.589844 Z M 316.253906 180.867188 L 190.605469 69.1875 C 189.703125 68.378906 188.566406 67.980469 187.433594 67.980469 C 186.300781 67.980469 185.164062 68.378906 184.261719 69.1875 L 58.613281 180.867188 L 51.027344 173.28125 C 71.378906 154.964844 168.546875 67.515625 187.4375 50.519531 L 323.84375 173.28125 Z M 316.253906 180.867188 " fill-opacity="1" fill-rule="nonzero"/></g></svg>